# File created by Blade
# Date/Time:  Tue Apr 07 20:22:14 2015
# Frame Rate: 120.000 fps
#------------------------------------------------------
:FULLY-SPECIFIED
:DEGREES
853
root 3.764736 35.425051 -11.486242 40.402612 -8.657535 -55.411362
Spine -15.368513 17.509713 32.123937
Head -6.485551 -2.451365 33.282060
LeftShoulder -21.763167 40.960497 25.975136
LeftArm 53.199879 -65.602076 -78.168057
LeftForeArm 2.969493 0.000000 6.337231
LeftHand 10.641263 -0.000000 12.270222
LeftHandThumb1 -26.253704 0.000000 33.147579
RightShoulder 0.431126 9.460062 -14.155251
RightArm 12.754405 16.039646 49.340296
RightForeArm -4.309879 0.000000 9.221432
RightHand 0.161849 -0.000000 6.983301
RightHandThumb1 -24.326973 -0.000000 -32.862282
LeftUpLeg -19.575676 11.000243 53.499797
LeftLeg 5.979548 -0.000000 -0.000000
LeftFoot -4.645876 16.122399 -14.157001
LeftToeBase -3.959289 -0.000000 0.000000
RightUpLeg -43.415000 -32.075135 -48.101450
RightLeg 65.347224 -0.000000 -0.000000
RightFoot 44.437386 -6.087173 -6.989302
RightToeBase 34.510048 -0.000000 -0.000000
854
root 3.750330 35.420222 -11.513184 40.503365 -8.383989 -55.351076
Spine -15.382662 17.250329 32.158600
Head -6.840711 -2.250581 33.533155
LeftShoulder -21.679607 40.933795 26.031309
LeftArm 53.331796 -65.567642 -78.244740
LeftForeArm 3.080763 -0.000000 6.353935
LeftHand 10.737882 -0.000000 12.155169
LeftHandThumb1 -26.253704 0.000000 33.147579
RightShoulder 0.392479 9.482546 -14.105358
RightArm 12.585196 16.177204 49.255639
RightForeArm -4.400846 -0.000000 9.236541
RightHand 0.196634 -0.000000 7.022016
RightHandThumb1 -24.326973 -0.000000 -32.862282
LeftUpLeg -19.885949 11.039439 53.621765
LeftLeg 5.969867 -0.000000 -0.000000
LeftFoot -4.553774 15.911335 -14.081281
LeftToeBase -4.182523 -0.000000 0.000000
RightUpLeg -43.033308 -31.799645 -48.285024
RightLeg 65.608951 -0.000000 -0.000000
RightFoot 44.340990 -6.055269 -6.974636
RightToeBase 34.654024 -0.000000 -0.000000
855
root 3.738188 35.412598 -11.536179 40.629102 -8.183110 -55.310781
Spine -15.392792 17.044785 32.182269
Head -7.141300 -2.044006 33.743081
LeftShoulder -21.642139 40.961829 26.043186
LeftArm 53.555240 -65.454177 -78.346943
LeftForeArm 3.081622 0.000000 6.322790
LeftHand 10.778462 -0.000000 12.153689
LeftHandThumb1 -26.253704 0.000000 33.147579
RightShoulder 0.392596 9.432008 -14.040238
RightArm 12.444383 16.305427 49.141217
RightForeArm -4.384721 -0.000000 9.264080
RightHand 0.077958 -0.000000 7.014579
RightHandThumb1 -24.326973 -0.000000 -32.862282
LeftUpLeg -20.111979 11.148582 53.708184
LeftLeg 5.903629 -0.000000 -0.000000
LeftFoot -4.508363 15.689094 -14.023308
LeftToeBase -4.365055 -0.000000 0.000000
RightUpLeg -42.740443 -31.524828 -48.382323
RightLeg 65.756352 -0.000000 -0.000000
RightFoot 44.280931 -6.002676 -6.993026
RightToeBase 34.531775 -0.000000 -0.000000
856
root 3.731758 35.401461 -11.552941 40.760473 -8.072806 -55.284747
Spine -15.391639 16.908084 32.188993
Head -7.341721 -1.806618 33.936680
LeftShoulder -21.562800 40.997799 26.073114
LeftArm 53.689527 -65.333986 -78.370080
LeftForeArm 3.039245 -0.000000 6.333776
LeftHand 10.700667 -0.000000 12.052244
LeftHandThumb1 -26.253704 0.000000 33.147579
RightShoulder 0.398995 9.384082 -14.002753
RightArm 12.277726 16.467262 49.070953
RightForeArm -4.372419 -0.000000 9.286038
RightHand 0.027563 -0.000000 6.896859
RightHandThumb1 -24.326973 -0.000000 -32.862282
LeftUpLeg -20.216023 11.334477 53.721314
LeftLeg 5.745743 -0.000000 -0.000000
LeftFoot -4.421100 15.447934 -13.823109
LeftToeBase -4.791773 -0.000000 0.000000
RightUpLeg -42.534219 -31.245970 -48.421875
RightLeg 65.779297 -0.000000 -0.000000
RightFoot 44.350089 -6.113930 -6.832466
RightToeBase 34.363658 -0.000000 -0.000000
857
root 3.725551 35.392980 -11.570567 40.911254 -7.975672 -55.269997
Spine -15.409376 16.773123 32.194077
Head -7.486472 -1.586980 34.155724
LeftShoulder -21.463335 41.035203 26.123164
LeftArm 53.860476 -65.236492 -78.421044
LeftForeArm 2.979937 -0.000000 6.297019
LeftHand 10.729104 -0.000000 11.809119
LeftHandThumb1 -26.253704 0.000000 33.147579
RightShoulder 0.408681 9.295456 -13.958902
RightArm 12.150014 16.551917 49.010145
RightForeArm -4.368968 0.000000 9.332383
RightHand 0.243319 -0.000000 6.974221
RightHandThumb1 -24.326973 -0.000000 -32.862282
LeftUpLeg -20.294223 11.494587 53.760208
LeftLeg 5.570731 -0.000000 -0.000000
LeftFoot -4.344646 15.207057 -13.652210
LeftToeBase -5.139704 -0.000000 0.000000
RightUpLeg -42.363471 -30.987991 -48.368228
RightLeg 65.671509 -0.000000 -0.000000
RightFoot 44.339761 -6.388220 -6.522932
RightToeBase 34.879698 -0.000000 -0.000000
858
root 3.721166 35.384588 -11.586391 41.063101 -7.904131 -55.226433
Spine -15.435626 16.651224 32.164224
Head -7.594626 -1.384507 34.361566
LeftShoulder -21.391914 41.048414 26.115361
LeftArm 54.022906 -65.075298 -78.330415
LeftForeArm 2.887624 -0.000000 6.129153
LeftHand 10.809762 0.000000 11.768367
LeftHandThumb1 -26.253704 0.000000 33.147579
RightShoulder 0.405002 9.244437 -13.897131
RightArm 12.018257 16.683495 48.954271
RightForeArm -4.484858 -0.000000 9.369958
RightHand 0.032519 -0.000000 6.833290
RightHandThumb1 -24.326973 -0.000000 -32.862282
LeftUpLeg -20.360944 11.526640 53.774678
LeftLeg 5.368380 -0.000000 -0.000000
LeftFoot -4.321384 15.182524 -13.468861
LeftToeBase -5.149320 -0.000000 0.000000
RightUpLeg -42.185490 -30.742170 -48.294294
RightLeg 65.497288 -0.000000 -0.000000
RightFoot 44.303384 -6.409139 -6.450482
RightToeBase 34.884692 -0.000000 -0.000000
859
root 3.718240 35.380089 -11.599256 41.256776 -7.862037 -55.193642
Spine -15.519485 16.598459 32.104022
Head -7.650917 -1.235213 34.595494
LeftShoulder -21.279223 41.084703 26.147388
LeftArm 54.276340 -64.892583 -78.300355
LeftForeArm 2.734781 -0.000000 5.928500
LeftHand 10.907316 -0.000000 11.627474
LeftHandThumb1 -26.253704 0.000000 33.147579
RightShoulder 0.368214 9.189733 -13.865545
RightArm 11.843218 16.796311 48.954984
RightForeArm -4.629522 -0.000000 9.460927
RightHand 0.042581 -0.000000 6.770108
RightHandThumb1 -24.326973 -0.000000 -32.862282
LeftUpLeg -20.418596 11.518455 53.810833
LeftLeg 5.187768 -0.000000 -0.000000
LeftFoot -4.263394 15.199839 -13.226459
LeftToeBase -5.173034 -0.000000 0.000000
RightUpLeg -42.065806 -30.473152 -48.144473
RightLeg 65.238705 -0.000000 -0.000000
RightFoot 44.353085 -6.400673 -6.531837
RightToeBase 34.997633 -0.000000 -0.000000
860
root 3.719911 35.375328 -11.609040 41.429283 -7.807125 -55.109692
Spine -15.617628 16.488166 32.039567
Head -7.665633 -1.123770 34.808151
LeftShoulder -21.197443 41.108293 26.141319
LeftArm 54.592760 -64.702903 -78.340469
LeftForeArm 2.616956 0.000000 5.778483
LeftHand 10.858901 -0.000000 11.473376
LeftHandThumb1 -26.253704 0.000000 33.147579
RightShoulder 0.370190 9.181133 -13.832060
RightArm 11.627273 16.871704 48.933654
RightForeArm -4.770685 0.000000 9.552088
RightHand 0.081739 0.000000 6.801752
RightHandThumb1 -24.326973 -0.000000 -32.862282
LeftUpLeg -20.532773 11.335289 53.834737
LeftLeg 5.064923 -0.000000 -0.000000
LeftFoot -4.198105 15.374014 -12.955276
LeftToeBase -5.267919 -0.000000 0.000000
RightUpLeg -41.927151 -30.280754 -47.937983
RightLeg 64.820352 -0.000000 -0.000000
RightFoot 44.719436 -6.613897 -6.778041
RightToeBase 34.851584 -0.000000 -0.000000
861
root 3.726256 35.370982 -11.614491 41.593221 -7.782352 -54.953169
Spine -15.745640 16.363365 31.895174
Head -7.645510 -1.019289 35.039737
LeftShoulder -21.113147 41.103935 26.140279
LeftArm 54.894246 -64.498238 -78.362706
LeftForeArm 2.548053 0.000000 5.617833
LeftHand 11.115917 0.000000 11.220210
LeftHandThumb1 -26.253704 0.000000 33.147579
RightShoulder 0.341915 9.199066 -13.777911
RightArm 11.422948 16.934619 48.916451
RightForeArm -4.931679 0.000000 9.612349
RightHand 0.033314 -0.000000 6.715579
RightHandThumb1 -24.326973 -0.000000 -32.862282
LeftUpLeg -20.690017 11.099069 53.783777
LeftLeg 4.982457 -0.000000 -0.000000
LeftFoot -4.125548 15.546767 -12.733630
LeftToeBase -5.381709 -0.000000 0.000000
RightUpLeg -41.716125 -30.031542 -47.847381
RightLeg 64.436313 -0.000000 -0.000000
RightFoot 44.749391 -6.625573 -6.842443
RightToeBase 34.765326 -0.000000 -0.000000
